<?xml version="1.0" encoding="utf-8" standalone="yes"?>
<!DOCTYPE svg PUBLIC "-//W3C//DTD SVG 1.1//EN" "http://www.w3.org/Graphics/SVG/1.1/DTD/svg11.dtd">
<svg style="fill:none;stroke:none;fill-rule:evenodd;clip-rule:evenodd;stroke-linecap:round;stroke-linejoin:round;stroke-miterlimit:1.5;" version="1.1" xmlns="http://www.w3.org/2000/svg" xmlns:xlink="http://www.w3.org/1999/xlink" width="912" height="774" viewBox="0 0 912 774"><style class="text-font-style fontImports" data-font-family="Roboto">@import url(https://fonts.googleapis.com/css2?family=Roboto:wght@400;700&amp;amp;display=block);</style><g id="items" style="isolation: isolate"><g id="blend" style="mix-blend-mode: normal"><g id="g-root-cp_1_g-1_djt8tixxphxg-fill" data-item-order="-585778" transform="translate(392, 115.99993896484375)"><g id="cp_1_g-1_djt8tixxphxg-fill-merged" stroke="none" fill="#4e88e7" fill-opacity="1"><g><path d="M52 94C75.196 94 94 75.196 94 52C94 28.804 75.196 10 52 10C28.804 10 10 28.804 10 52C10 75.196 28.804 94 52 94 M52 78.25C66.497 78.25 78.25 66.497 78.25 52C78.25 37.502 66.497 25.75 52 25.75C37.502 25.75 25.75 37.502 25.75 52C25.75 66.497 37.502 78.25 52 78.25"></path></g></g></g><g id="g-root-sy_1_Subtract_4ospnqxxpfkd-fill" data-item-order="-585771" transform="translate(476, 157.99993896484375)"></g><g id="g-root-sy_1_Subtract-start_8z7jaxxpgcm-fill" data-item-order="-585769" transform="translate(515.375, 155.37493896484375)"></g><g id="g-root-sy_1_Subtract_1_8z7jaxxpgcn-fill" data-item-order="-585765" transform="translate(353, 157.99993896484375)"></g><g id="g-root-sy_1_Subtract-start_1_1uu9rdyxxpgxs-fill" data-item-order="-585763" transform="translate(347, 154.99993896484375)"></g><g id="g-root-cp_1_lines_1lymr52xxphqh-fill" data-item-order="-585750" transform="translate(426, 199.24993896484375)"><g id="cp_1_lines_1lymr52xxphqh-fill-merged" stroke="none" fill="#4e88e7" fill-opacity="1"><g><path d="M10 47.5C12.591 46.983 15.266 46.713 18 46.713C20.734 46.713 23.409 46.983 26 47.5 V10C23.409 10.517 20.734 10.787 18 10.787C15.266 10.787 12.591 10.517 10 10 V47.5"></path></g></g></g><g id="g-root-cp_2_g-2_1hit90mxxpiiq-fill" data-item-order="-585720" transform="translate(392, 235.99993896484375)"><g id="cp_2_g-2_1hit90mxxpiiq-fill-merged" stroke="none" fill="#1eabda" fill-opacity="1"><g><path d="M52 94C75.196 94 94 75.196 94 52C94 28.804 75.196 10 52 10C28.804 10 10 28.804 10 52C10 75.196 28.804 94 52 94 M52 78.25C66.497 78.25 78.25 66.497 78.25 52C78.25 37.502 66.497 25.75 52 25.75C37.502 25.75 25.75 37.502 25.75 52C25.75 66.497 37.502 78.25 52 78.25"></path></g></g></g><g id="g-root-sy_2_Subtract_1hit90mxxpiir-fill" data-item-order="-585713" transform="translate(476, 277.99993896484375)"></g><g id="g-root-sy_2_Subtract-start_18nspuuxxpg5o-fill" data-item-order="-585711" transform="translate(515.375, 275.37493896484375)"></g><g id="g-root-sy_2_Subtract_1_147z7qexxpgxx-fill" data-item-order="-585707" transform="translate(353, 277.99993896484375)"></g><g id="g-root-sy_2_Subtract-start_1_147z7qexxpgxy-fill" data-item-order="-585705" transform="translate(347, 274.99993896484375)"></g><g id="g-root-cp_2_lines_1_vcc7hixxphqn-fill" data-item-order="-585698" transform="translate(426, 319.25)"><g id="cp_2_lines_1_vcc7hixxphqn-fill-merged" stroke="none" fill="#1eabda" fill-opacity="1"><g><path d="M10 47.5C12.591 46.983 15.266 46.713 18 46.713C20.734 46.713 23.409 46.983 26 47.5 V10C23.409 10.517 20.734 10.787 18 10.787C15.266 10.787 12.591 10.517 10 10 V47.5"></path></g></g></g><g id="g-root-cp_3_g-3_m7c63qxx4dmo-fill" data-item-order="-585676" transform="translate(392, 356)"><g id="cp_3_g-3_m7c63qxx4dmo-fill-merged" stroke="none" fill="#3cc583" fill-opacity="1"><g><path d="M52 94C75.196 94 94 75.196 94 52C94 28.804 75.196 10 52 10C28.804 10 10 28.804 10 52C10 75.196 28.804 94 52 94 M52 78.25C66.497 78.25 78.25 66.497 78.25 52C78.25 37.502 66.497 25.75 52 25.75C37.502 25.75 25.75 37.502 25.75 52C25.75 66.497 37.502 78.25 52 78.25"></path></g></g></g><g id="g-root-sy_3_Subtract_dbp5uuxx4efd-fill" data-item-order="-585669" transform="translate(476, 398)"></g><g id="g-root-sy_3_Subtract-start_8vvnqexx4f7m-fill" data-item-order="-585667" transform="translate(515.375, 395.375)"></g><g id="g-root-sy_3_Subtract_1_8vvnqexx4f7n-fill" data-item-order="-585663" transform="translate(353, 398)"></g><g id="g-root-sy_3_Subtract-start_1_8vvnqexx4f7o-fill" data-item-order="-585661" transform="translate(347, 395)"></g><g id="g-root-cp_3_lines_2_8nhixx4g0d-fill" data-item-order="-585648" transform="translate(426, 439.25)"><g id="cp_3_lines_2_8nhixx4g0d-fill-merged" stroke="none" fill="#3cc583" fill-opacity="1"><g><path d="M10 47.5C12.591 46.983 15.266 46.713 18 46.713C20.734 46.713 23.409 46.983 26 47.5 V10C23.409 10.517 20.734 10.787 18 10.787C15.266 10.787 12.591 10.517 10 10 V47.5"></path></g></g></g><g id="g-root-cp_4_g-4_1um5ofaxx4dfq-fill" data-item-order="-585620" transform="translate(392, 476)"><g id="cp_4_g-4_1um5ofaxx4dfq-fill-merged" stroke="none" fill="#92bd39" fill-opacity="1"><g><path d="M52 94C75.196 94 94 75.196 94 52C94 28.804 75.196 10 52 10C28.804 10 10 28.804 10 52C10 75.196 28.804 94 52 94 M52 78.25C66.497 78.25 78.25 66.497 78.25 52C78.25 37.502 66.497 25.75 52 25.75C37.502 25.75 25.75 37.502 25.75 52C25.75 66.497 37.502 78.25 52 78.25"></path></g></g></g><g id="g-root-sy_4_Subtract_1lqio6exx4e8f-fill" data-item-order="-585613" transform="translate(476, 518)"></g><g id="g-root-sy_4_Subtract-start_1hap61yxx4f0o-fill" data-item-order="-585611" transform="translate(515.375, 515.375)"></g><g id="g-root-sy_4_Subtract_1_1hap61yxx4f0p-fill" data-item-order="-585607" transform="translate(353, 518)"></g><g id="g-root-sy_4_Subtract-start_1_1cuvnxixx4fsy-fill" data-item-order="-585605" transform="translate(347, 515)"></g><g id="g-root-cp_4_lines_3_13zv4rqxx4dfv-fill" data-item-order="-585598" transform="translate(426, 559.25)"><g id="cp_4_lines_3_13zv4rqxx4dfv-fill-merged" stroke="none" fill="#92bd39" fill-opacity="1"><g><path d="M10 47.5C12.591 46.983 15.266 46.713 18 46.713C20.734 46.713 23.409 46.983 26 47.5 V10C23.409 10.517 20.734 10.787 18 10.787C15.266 10.787 12.591 10.517 10 10 V47.5"></path></g></g></g><g id="g-root-cp_5_g-5_zk1mnaxx4e84-fill" data-item-order="-585576" transform="translate(392, 596)"><g id="cp_5_g-5_zk1mnaxx4e84-fill-merged" stroke="none" fill="#e0cb15" fill-opacity="1"><g><path d="M52 94C75.196 94 94 75.196 94 52C94 28.804 75.196 10 52 10C28.804 10 10 28.804 10 52C10 75.196 28.804 94 52 94 M52 78.25C66.497 78.25 78.25 66.497 78.25 52C78.25 37.502 66.497 25.75 52 25.75C37.502 25.75 25.75 37.502 25.75 52C25.75 66.497 37.502 78.25 52 78.25"></path></g></g></g><g id="g-root-sy_5_Subtract_zk1mnaxx4e85-fill" data-item-order="-585569" transform="translate(476, 638)"></g><g id="g-root-sy_5_Subtract-start_qoemeexx4f0u-fill" data-item-order="-585567" transform="translate(515.375, 635.375)"></g><g id="g-root-sy_5_Subtract_1_qoemeexx4f0v-fill" data-item-order="-585563" transform="translate(353, 638)"></g><g id="g-root-sy_5_Subtract-start_1_m8l49yxx4ft4-fill" data-item-order="-585561" transform="translate(347, 635)"></g><g id="g-root-ic_1_hun1euxx7762-fill" data-item-order="0" transform="translate(290, 247.99993896484375)"></g><g id="g-root-tx_1_1q7l4h2xx77yn-fill" data-item-order="0" transform="translate(423.56768798828125, 139.99993896484375)"><g id="tx_1_1q7l4h2xx77yn-fill-merged" stroke="none" fill="#484848" fill-opacity="1"><g><text style="font: 30px Roboto, sans-serif; white-space: pre;" transform="translate(20.43231201171875, 28)" font-size="30px" font-family="Roboto, sans-serif"><tspan x="-8.43" y="18" dominant-baseline="ideographic">1</tspan></text></g></g></g><g id="g-root-tx_gitgithu_1hcklbaxx76dc-fill" data-item-order="0" transform="translate(165.19793701171875, 247.99993896484375)"><g id="tx_gitgithu_1hcklbaxx76dc-fill-merged" stroke="none" fill="#1eabda" fill-opacity="1"><g><text style="font: bold 20px Roboto, sans-serif; white-space: pre;" transform="translate(122.80206298828125, 22)" font-weight="bold" font-size="20px" font-family="Roboto, sans-serif"><tspan x="-110.8" y="12" dominant-baseline="ideographic">Git + GitHub</tspan></text></g></g></g><g id="g-root-tx_vercel_zjf5k6xxa0hz-fill" data-item-order="0" transform="translate(590, 404)"><g id="tx_vercel_zjf5k6xxa0hz-fill-merged" stroke="none" fill="#484848" fill-opacity="1"><g><text style="font: 15px Roboto, sans-serif; white-space: pre;" transform="translate(10, 28)" font-size="15px" font-family="Roboto, sans-serif"><tspan x="2" y="0" dominant-baseline="ideographic">Vercel 自动构建网站并在容器中执</tspan><tspan x="2" y="18" dominant-baseline="ideographic">行命令</tspan></text></g></g></g><g id="g-root-tx_obsidian_qqa1nqxx4e18-fill" data-item-order="0" transform="translate(590, 163.99993896484375)"><g id="tx_obsidian_qqa1nqxx4e18-fill-merged" stroke="none" fill="#484848" fill-opacity="1"><g><text style="font: 15px Roboto, sans-serif; white-space: pre;" transform="translate(10, 28)" font-size="15px" font-family="Roboto, sans-serif"><tspan x="2" y="0" dominant-baseline="ideographic">在 Obsidian 中编写笔记和编辑 </tspan><tspan x="2" y="18" dominant-baseline="ideographic">`.md` 源文件</tspan></text></g></g></g><g id="g-root-tx_verceled_v8lg4mxxbe2q-fill" data-item-order="0" transform="translate(86.75, 488)"><g id="tx_verceled_v8lg4mxxbe2q-fill-merged" stroke="none" fill="#92bd39" fill-opacity="1"><g><text style="font: bold 20px Roboto, sans-serif; white-space: pre;" transform="translate(201.25, 22)" font-weight="bold" font-size="20px" font-family="Roboto, sans-serif"><tspan x="-189.25" y="12" dominant-baseline="ideographic">Vercel Edge Network</tspan></text></g></g></g><g id="g-root-ic_netw_91hxiexxbggc-fill" data-item-order="0" transform="translate(290, 488)"></g><g id="g-root-tx__1q87lk6xx4d8i-fill" data-item-order="0" transform="translate(274, 145.99993896484375)"><g id="tx__1q87lk6xx4d8i-fill-merged" stroke="none" fill="#484848" fill-opacity="1"><g><text style="font: 15px Roboto, sans-serif; white-space: pre;" transform="translate(74, 19)" font-size="15px" font-family="Roboto, sans-serif"><tspan x="-62" y="9" dominant-baseline="ideographic">源码开发</tspan></text></g></g></g><g id="g-root-tx_2_4pf9wmxx8npg-fill" data-item-order="0" transform="translate(423.56768798828125, 259.99993896484375)"><g id="tx_2_4pf9wmxx8npg-fill-merged" stroke="none" fill="#484848" fill-opacity="1"><g><text style="font: 30px Roboto, sans-serif; white-space: pre;" transform="translate(20.43231201171875, 28)" font-size="30px" font-family="Roboto, sans-serif"><tspan x="-8.43" y="18" dominant-baseline="ideographic">2</tspan></text></g></g></g><g id="g-root-tx_4_4jt04mxxe8zy-fill" data-item-order="0" transform="translate(423.56768798828125, 500)"><g id="tx_4_4jt04mxxe8zy-fill-merged" stroke="none" fill="#484848" fill-opacity="1"><g><text style="font: 30px Roboto, sans-serif; white-space: pre;" transform="translate(20.43231201171875, 28)" font-size="30px" font-family="Roboto, sans-serif"><tspan x="-8.43" y="18" dominant-baseline="ideographic">4</tspan></text></g></g></g><g id="g-root-tx__1ha2oyuxxa1al-fill" data-item-order="0" transform="translate(274, 386)"><g id="tx__1ha2oyuxxa1al-fill-merged" stroke="none" fill="#484848" fill-opacity="1"><g><text style="font: 15px Roboto, sans-serif; white-space: pre;" transform="translate(74, 19)" font-size="15px" font-family="Roboto, sans-serif"><tspan x="-62" y="9" dominant-baseline="ideographic">触发构建</tspan></text></g></g></g><g id="g-root-tx_vercelbu_13z8nomxx9zpq-fill" data-item-order="0" transform="translate(590, 368)"><g id="tx_vercelbu_13z8nomxx9zpq-fill-merged" stroke="none" fill="#3cc583" fill-opacity="1"><g><text style="font: bold 20px Roboto, sans-serif; white-space: pre;" transform="translate(10, 22)" font-weight="bold" font-size="20px" font-family="Roboto, sans-serif"><tspan x="2" y="12" dominant-baseline="ideographic">Vercel Build Server</tspan></text></g></g></g><g id="g-root-tx__hv9ihyxxe7f1-fill" data-item-order="0" transform="translate(530, 506)"><g id="tx__hv9ihyxxe7f1-fill-merged" stroke="none" fill="#484848" fill-opacity="1"><g><text style="font: 15px Roboto, sans-serif; white-space: pre;" transform="translate(10, 19)" font-size="15px" font-family="Roboto, sans-serif"><tspan x="2" y="9" dominant-baseline="ideographic">分发与加速</tspan></text></g></g></g><g id="g-root-tx_htmlcdn_hx4xraxxbfnn-fill" data-item-order="0" transform="translate(41.91668701171875, 524)"><g id="tx_htmlcdn_hx4xraxxbfnn-fill-merged" stroke="none" fill="#484848" fill-opacity="1"><g><text style="font: 15px Roboto, sans-serif; white-space: pre;" transform="translate(246.08331298828125, 28)" font-size="15px" font-family="Roboto, sans-serif"><tspan x="-234.08" y="0" dominant-baseline="ideographic">将编译好的 HTML 分发到全球 CDN </tspan><tspan x="-32" y="18" dominant-baseline="ideographic">节点</tspan></text></g></g></g><g id="g-root-ic_chec_m7yn6uxxa22w-fill" data-item-order="0" transform="translate(530, 368)"></g><g id="g-root-tx_vercel_v7yz1ixxe809-fill" data-item-order="0" transform="translate(590, 644)"><g id="tx_vercel_v7yz1ixxe809-fill-merged" stroke="none" fill="#484848" fill-opacity="1"><g><text style="font: 15px Roboto, sans-serif; white-space: pre;" transform="translate(10, 28)" font-size="15px" font-family="Roboto, sans-serif"><tspan x="2" y="0" dominant-baseline="ideographic">将自定义域名指向 Vercel，实现访</tspan><tspan x="2" y="18" dominant-baseline="ideographic">问重定向</tspan></text></g></g></g><g id="g-root-ic_2_qs5gx2xxe8si-fill" data-item-order="0" transform="translate(530, 608)"></g><g id="g-root-tx_dnsdomai_18it0bqxxe9l4-fill" data-item-order="0" transform="translate(590, 608)"><g id="tx_dnsdomai_18it0bqxxe9l4-fill-merged" stroke="none" fill="#e0cb15" fill-opacity="1"><g><text style="font: bold 20px Roboto, sans-serif; white-space: pre;" transform="translate(10, 22)" font-weight="bold" font-size="20px" font-family="Roboto, sans-serif"><tspan x="2" y="12" dominant-baseline="ideographic">DNS/Domain</tspan></text></g></g></g><g id="g-root-tx__1qa30tixxe77z-fill" data-item-order="0" transform="translate(259, 626)"><g id="tx__1qa30tixxe77z-fill-merged" stroke="none" fill="#484848" fill-opacity="1"><g><text style="font: 15px Roboto, sans-serif; white-space: pre;" transform="translate(89, 19)" font-size="15px" font-family="Roboto, sans-serif"><tspan x="-77" y="9" dominant-baseline="ideographic">入口重定向</tspan></text></g></g></g><g id="g-root-tx_quartzve_hte38mxx4dfl-fill" data-item-order="0" transform="translate(254.40625, 37.99993896484375)"><g id="tx_quartzve_hte38mxx4dfl-fill-merged" stroke="none" fill="#484848" fill-opacity="1"><g><text style="font: bold 25px Roboto, sans-serif; white-space: pre;" transform="translate(201.59375, 25)" font-weight="bold" font-size="25px" font-family="Roboto, sans-serif"><tspan x="-189.59" y="15" dominant-baseline="ideographic">Quartz + Vercel 博客网站构建流程</tspan></text></g></g></g><g id="g-root-tx_gitgithu_14142xyxx77y9-fill" data-item-order="0" transform="translate(82.78125, 283.99993896484375)"><g id="tx_gitgithu_14142xyxx77y9-fill-merged" stroke="none" fill="#484848" fill-opacity="1"><g><text style="font: 15px Roboto, sans-serif; white-space: pre;" transform="translate(205.21875, 28)" font-size="15px" font-family="Roboto, sans-serif"><tspan x="-193.22" y="0" dominant-baseline="ideographic">使用 Git 将源码和笔记推送到 </tspan><tspan x="-48.17" y="18" dominant-baseline="ideographic">GitHub</tspan></text></g></g></g><g id="g-root-tx_5_4g25lyxxh2iz-fill" data-item-order="0" transform="translate(423.56768798828125, 620)"><g id="tx_5_4g25lyxxh2iz-fill-merged" stroke="none" fill="#484848" fill-opacity="1"><g><text style="font: 30px Roboto, sans-serif; white-space: pre;" transform="translate(20.43231201171875, 28)" font-size="30px" font-family="Roboto, sans-serif"><tspan x="-8.43" y="18" dominant-baseline="ideographic">5</tspan></text></g></g></g><g id="g-root-tx__i0vs9yxx8m4j-fill" data-item-order="0" transform="translate(530, 265.99993896484375)"><g id="tx__i0vs9yxx8m4j-fill-merged" stroke="none" fill="#484848" fill-opacity="1"><g><text style="font: 15px Roboto, sans-serif; white-space: pre;" transform="translate(10, 19)" font-size="15px" font-family="Roboto, sans-serif"><tspan x="2" y="9" dominant-baseline="ideographic">代码提交</tspan></text></g></g></g><g id="g-root-ic_empl_8zmi92xx4d8l-fill" data-item-order="0" transform="translate(530, 127.99993896484375)"></g><g id="g-root-tx_obsidian_1cwr36uxx4etf-fill" data-item-order="0" transform="translate(590, 127.99993896484375)"><g id="tx_obsidian_1cwr36uxx4etf-fill-merged" stroke="none" fill="#4e88e7" fill-opacity="1"><g><text style="font: bold 20px Roboto, sans-serif; white-space: pre;" transform="translate(10, 22)" font-weight="bold" font-size="20px" font-family="Roboto, sans-serif"><tspan x="2" y="12" dominant-baseline="ideographic">Obsidian IDE</tspan></text></g></g></g><g id="g-root-tx_3_18jfheuxxbfnl-fill" data-item-order="0" transform="translate(423.56768798828125, 380)"><g id="tx_3_18jfheuxxbfnl-fill-merged" stroke="none" fill="#484848" fill-opacity="1"><g><text style="font: 30px Roboto, sans-serif; white-space: pre;" transform="translate(20.43231201171875, 28)" font-size="30px" font-family="Roboto, sans-serif"><tspan x="-8.43" y="18" dominant-baseline="ideographic">3</tspan></text></g></g></g><g id="g-root-cp_1_g-1_djt8tixxphxg-stroke" data-item-order="-585778" transform="translate(392, 115.99993896484375)"><g id="cp_1_g-1_djt8tixxphxg-stroke" fill="none" stroke-linecap="round" stroke-linejoin="round" stroke-miterlimit="4" stroke="#ffffff" stroke-width="2" stroke-opacity="1"><g><path d="M 52 94C 75.196 94 94 75.196 94 52C 94 28.804 75.196 10 52 10C 28.804 10 10 28.804 10 52C 10 75.196 28.804 94 52 94ZM 52 78.25C 66.4975 78.25 78.25 66.4975 78.25 52C 78.25 37.5025 66.4975 25.75 52 25.75C 37.5025 25.75 25.75 37.5025 25.75 52C 25.75 66.4975 37.5025 78.25 52 78.25Z"></path></g></g></g><g id="g-root-sy_1_Subtract_4ospnqxxpfkd-stroke" data-item-order="-585771" transform="translate(476, 157.99993896484375)"><g id="sy_1_Subtract_4ospnqxxpfkd-stroke" fill="none" stroke-linecap="round" stroke-linejoin="round" stroke-miterlimit="4" stroke="#4e88e7" stroke-width="2" stroke-opacity="1"><g><path d="M 49.375 10L 10 10"></path></g></g></g><g id="g-root-sy_1_Subtract-start_8z7jaxxpgcm-stroke" data-item-order="-585769" transform="translate(515.375, 155.37493896484375)"><g id="sy_1_Subtract-start_8z7jaxxpgcm-stroke" fill="none" stroke-linecap="round" stroke-linejoin="round" stroke-miterlimit="4" stroke="#484848" stroke-width="2" stroke-opacity="1"><g><path d="M 12.625 10C 14.0738 10 15.25 11.1762 15.25 12.625C 15.25 14.0738 14.0738 15.25 12.625 15.25C 11.1762 15.25 10 14.0738 10 12.625C 10 11.1762 11.1762 10 12.625 10Z"></path></g></g></g><g id="g-root-sy_1_Subtract_1_8z7jaxxpgcn-stroke" data-item-order="-585765" transform="translate(353, 157.99993896484375)"><g id="sy_1_Subtract_1_8z7jaxxpgcn-stroke" fill="none" stroke-linecap="round" stroke-linejoin="round" stroke-miterlimit="4" stroke="#4e88e7" stroke-width="2" stroke-opacity="1"><g><path d="M 10 10L 49 10"></path></g></g></g><g id="g-root-sy_1_Subtract-start_1_1uu9rdyxxpgxs-stroke" data-item-order="-585763" transform="translate(347, 154.99993896484375)"><g id="sy_1_Subtract-start_1_1uu9rdyxxpgxs-stroke" fill="none" stroke-linecap="round" stroke-linejoin="round" stroke-miterlimit="4" stroke="#484848" stroke-width="2" stroke-opacity="1"><g><path d="M 13 10C 11.3443 10 10 11.3443 10 13C 10 14.6557 11.3443 16 13 16C 14.6557 16 16 14.6557 16 13C 16 11.3443 14.6557 10 13 10Z"></path></g></g></g><g id="g-root-cp_1_lines_1lymr52xxphqh-stroke" data-item-order="-585750" transform="translate(426, 199.24993896484375)"><g id="cp_1_lines_1lymr52xxphqh-stroke" fill="none" stroke-linecap="round" stroke-linejoin="round" stroke-miterlimit="4" stroke="#ffffff" stroke-width="2" stroke-opacity="1"><g><path d="M 10 16L 10 10C 12.5913 10.5167 15.2656 10.7871 18 10.7871C 20.7344 10.7871 23.4087 10.5167 26 10.000001L 26 16M 26 41.5L 26 47.5C 23.4087 46.9833 20.7344 46.7129 18 46.7129C 15.2656 46.7129 12.5913 46.9833 10 47.5L 10 41.5M 26 41.5L 26 16M 10 16L 10 41.5"></path></g></g></g><g id="g-root-cp_2_g-2_1hit90mxxpiiq-stroke" data-item-order="-585720" transform="translate(392, 235.99993896484375)"><g id="cp_2_g-2_1hit90mxxpiiq-stroke" fill="none" stroke-linecap="round" stroke-linejoin="round" stroke-miterlimit="4" stroke="#ffffff" stroke-width="2" stroke-opacity="1"><g><path d="M 52 94C 75.196 94 94 75.196 94 52C 94 28.804 75.196 10 52 10C 28.804 10 10 28.804 10 52C 10 75.196 28.804 94 52 94ZM 52 78.25C 66.4975 78.25 78.25 66.4975 78.25 52C 78.25 37.5025 66.4975 25.75 52 25.75C 37.5025 25.75 25.75 37.5025 25.75 52C 25.75 66.4975 37.5025 78.25 52 78.25Z"></path></g></g></g><g id="g-root-sy_2_Subtract_1hit90mxxpiir-stroke" data-item-order="-585713" transform="translate(476, 277.99993896484375)"><g id="sy_2_Subtract_1hit90mxxpiir-stroke" fill="none" stroke-linecap="round" stroke-linejoin="round" stroke-miterlimit="4" stroke="#1eabda" stroke-width="2" stroke-opacity="1"><g><path d="M 49.375 10L 10 10"></path></g></g></g><g id="g-root-sy_2_Subtract-start_18nspuuxxpg5o-stroke" data-item-order="-585711" transform="translate(515.375, 275.37493896484375)"><g id="sy_2_Subtract-start_18nspuuxxpg5o-stroke" fill="none" stroke-linecap="round" stroke-linejoin="round" stroke-miterlimit="4" stroke="#484848" stroke-width="2" stroke-opacity="1"><g><path d="M 12.625 10C 14.0738 10 15.25 11.1762 15.25 12.625C 15.25 14.0738 14.0738 15.25 12.625 15.25C 11.1762 15.25 10 14.0738 10 12.625C 10 11.1762 11.1762 10 12.625 10Z"></path></g></g></g><g id="g-root-sy_2_Subtract_1_147z7qexxpgxx-stroke" data-item-order="-585707" transform="translate(353, 277.99993896484375)"><g id="sy_2_Subtract_1_147z7qexxpgxx-stroke" fill="none" stroke-linecap="round" stroke-linejoin="round" stroke-miterlimit="4" stroke="#1eabda" stroke-width="2" stroke-opacity="1"><g><path d="M 10 10L 49 10"></path></g></g></g><g id="g-root-sy_2_Subtract-start_1_147z7qexxpgxy-stroke" data-item-order="-585705" transform="translate(347, 274.99993896484375)"><g id="sy_2_Subtract-start_1_147z7qexxpgxy-stroke" fill="none" stroke-linecap="round" stroke-linejoin="round" stroke-miterlimit="4" stroke="#484848" stroke-width="2" stroke-opacity="1"><g><path d="M 13 10C 11.3443 10 10 11.3443 10 13C 10 14.6557 11.3443 16 13 16C 14.6557 16 16 14.6557 16 13C 16 11.3443 14.6557 10 13 10Z"></path></g></g></g><g id="g-root-cp_2_lines_1_vcc7hixxphqn-stroke" data-item-order="-585698" transform="translate(426, 319.25)"><g id="cp_2_lines_1_vcc7hixxphqn-stroke" fill="none" stroke-linecap="round" stroke-linejoin="round" stroke-miterlimit="4" stroke="#ffffff" stroke-width="2" stroke-opacity="1"><g><path d="M 10 16L 10 10C 12.5913 10.5167 15.2656 10.7871 18 10.7871C 20.7344 10.7871 23.4087 10.5167 26 10.000001L 26 16M 26 41.5L 26 47.5C 23.4087 46.9833 20.7344 46.7129 18 46.7129C 15.2656 46.7129 12.5913 46.9833 10 47.5L 10 41.5M 26 41.5L 26 16M 10 16L 10 41.5"></path></g></g></g><g id="g-root-cp_3_g-3_m7c63qxx4dmo-stroke" data-item-order="-585676" transform="translate(392, 356)"><g id="cp_3_g-3_m7c63qxx4dmo-stroke" fill="none" stroke-linecap="round" stroke-linejoin="round" stroke-miterlimit="4" stroke="#ffffff" stroke-width="2" stroke-opacity="1"><g><path d="M 52 94C 75.196 94 94 75.196 94 52C 94 28.804 75.196 10 52 10C 28.804 10 10 28.804 10 52C 10 75.196 28.804 94 52 94ZM 52 78.25C 66.4975 78.25 78.25 66.4975 78.25 52C 78.25 37.5025 66.4975 25.75 52 25.75C 37.5025 25.75 25.75 37.5025 25.75 52C 25.75 66.4975 37.5025 78.25 52 78.25Z"></path></g></g></g><g id="g-root-sy_3_Subtract_dbp5uuxx4efd-stroke" data-item-order="-585669" transform="translate(476, 398)"><g id="sy_3_Subtract_dbp5uuxx4efd-stroke" fill="none" stroke-linecap="round" stroke-linejoin="round" stroke-miterlimit="4" stroke="#3cc583" stroke-width="2" stroke-opacity="1"><g><path d="M 49.375 10L 10 10"></path></g></g></g><g id="g-root-sy_3_Subtract-start_8vvnqexx4f7m-stroke" data-item-order="-585667" transform="translate(515.375, 395.375)"><g id="sy_3_Subtract-start_8vvnqexx4f7m-stroke" fill="none" stroke-linecap="round" stroke-linejoin="round" stroke-miterlimit="4" stroke="#484848" stroke-width="2" stroke-opacity="1"><g><path d="M 12.625 10C 14.0738 10 15.25 11.1762 15.25 12.625C 15.25 14.0738 14.0738 15.25 12.625 15.25C 11.1762 15.25 10 14.0738 10 12.625C 10 11.1762 11.1762 10 12.625 10Z"></path></g></g></g><g id="g-root-sy_3_Subtract_1_8vvnqexx4f7n-stroke" data-item-order="-585663" transform="translate(353, 398)"><g id="sy_3_Subtract_1_8vvnqexx4f7n-stroke" fill="none" stroke-linecap="round" stroke-linejoin="round" stroke-miterlimit="4" stroke="#3cc583" stroke-width="2" stroke-opacity="1"><g><path d="M 10 10L 49 10"></path></g></g></g><g id="g-root-sy_3_Subtract-start_1_8vvnqexx4f7o-stroke" data-item-order="-585661" transform="translate(347, 395)"><g id="sy_3_Subtract-start_1_8vvnqexx4f7o-stroke" fill="none" stroke-linecap="round" stroke-linejoin="round" stroke-miterlimit="4" stroke="#484848" stroke-width="2" stroke-opacity="1"><g><path d="M 13 10C 11.3443 10 10 11.3443 10 13C 10 14.6557 11.3443 16 13 16C 14.6557 16 16 14.6557 16 13C 16 11.3443 14.6557 10 13 10Z"></path></g></g></g><g id="g-root-cp_3_lines_2_8nhixx4g0d-stroke" data-item-order="-585648" transform="translate(426, 439.25)"><g id="cp_3_lines_2_8nhixx4g0d-stroke" fill="none" stroke-linecap="round" stroke-linejoin="round" stroke-miterlimit="4" stroke="#ffffff" stroke-width="2" stroke-opacity="1"><g><path d="M 10 16L 10 10C 12.5913 10.5167 15.2656 10.7871 18 10.7871C 20.7344 10.7871 23.4087 10.5167 26 10.000001L 26 16M 26 41.5L 26 47.5C 23.4087 46.9833 20.7344 46.7129 18 46.7129C 15.2656 46.7129 12.5913 46.9833 10 47.5L 10 41.5M 26 41.5L 26 16M 10 16L 10 41.5"></path></g></g></g><g id="g-root-cp_4_g-4_1um5ofaxx4dfq-stroke" data-item-order="-585620" transform="translate(392, 476)"><g id="cp_4_g-4_1um5ofaxx4dfq-stroke" fill="none" stroke-linecap="round" stroke-linejoin="round" stroke-miterlimit="4" stroke="#ffffff" stroke-width="2" stroke-opacity="1"><g><path d="M 52 94C 75.196 94 94 75.196 94 52C 94 28.804 75.196 10 52 10C 28.804 10 10 28.804 10 52C 10 75.196 28.804 94 52 94ZM 52 78.25C 66.4975 78.25 78.25 66.4975 78.25 52C 78.25 37.5025 66.4975 25.75 52 25.75C 37.5025 25.75 25.75 37.5025 25.75 52C 25.75 66.4975 37.5025 78.25 52 78.25Z"></path></g></g></g><g id="g-root-sy_4_Subtract_1lqio6exx4e8f-stroke" data-item-order="-585613" transform="translate(476, 518)"><g id="sy_4_Subtract_1lqio6exx4e8f-stroke" fill="none" stroke-linecap="round" stroke-linejoin="round" stroke-miterlimit="4" stroke="#92bd39" stroke-width="2" stroke-opacity="1"><g><path d="M 49.375 10L 10 10"></path></g></g></g><g id="g-root-sy_4_Subtract-start_1hap61yxx4f0o-stroke" data-item-order="-585611" transform="translate(515.375, 515.375)"><g id="sy_4_Subtract-start_1hap61yxx4f0o-stroke" fill="none" stroke-linecap="round" stroke-linejoin="round" stroke-miterlimit="4" stroke="#484848" stroke-width="2" stroke-opacity="1"><g><path d="M 12.625 10C 14.0738 10 15.25 11.1762 15.25 12.625C 15.25 14.0738 14.0738 15.25 12.625 15.25C 11.1762 15.25 10 14.0738 10 12.625C 10 11.1762 11.1762 10 12.625 10Z"></path></g></g></g><g id="g-root-sy_4_Subtract_1_1hap61yxx4f0p-stroke" data-item-order="-585607" transform="translate(353, 518)"><g id="sy_4_Subtract_1_1hap61yxx4f0p-stroke" fill="none" stroke-linecap="round" stroke-linejoin="round" stroke-miterlimit="4" stroke="#92bd39" stroke-width="2" stroke-opacity="1"><g><path d="M 10 10L 49 10"></path></g></g></g><g id="g-root-sy_4_Subtract-start_1_1cuvnxixx4fsy-stroke" data-item-order="-585605" transform="translate(347, 515)"><g id="sy_4_Subtract-start_1_1cuvnxixx4fsy-stroke" fill="none" stroke-linecap="round" stroke-linejoin="round" stroke-miterlimit="4" stroke="#484848" stroke-width="2" stroke-opacity="1"><g><path d="M 13 10C 11.3443 10 10 11.3443 10 13C 10 14.6557 11.3443 16 13 16C 14.6557 16 16 14.6557 16 13C 16 11.3443 14.6557 10 13 10Z"></path></g></g></g><g id="g-root-cp_4_lines_3_13zv4rqxx4dfv-stroke" data-item-order="-585598" transform="translate(426, 559.25)"><g id="cp_4_lines_3_13zv4rqxx4dfv-stroke" fill="none" stroke-linecap="round" stroke-linejoin="round" stroke-miterlimit="4" stroke="#ffffff" stroke-width="2" stroke-opacity="1"><g><path d="M 10 16L 10 10C 12.5913 10.5167 15.2656 10.7871 18 10.7871C 20.7344 10.7871 23.4087 10.5167 26 10.000001L 26 16M 26 41.5L 26 47.5C 23.4087 46.9833 20.7344 46.7129 18 46.7129C 15.2656 46.7129 12.5913 46.9833 10 47.5L 10 41.5M 26 41.5L 26 16M 10 16L 10 41.5"></path></g></g></g><g id="g-root-cp_5_g-5_zk1mnaxx4e84-stroke" data-item-order="-585576" transform="translate(392, 596)"><g id="cp_5_g-5_zk1mnaxx4e84-stroke" fill="none" stroke-linecap="round" stroke-linejoin="round" stroke-miterlimit="4" stroke="#ffffff" stroke-width="2" stroke-opacity="1"><g><path d="M 52 94C 75.196 94 94 75.196 94 52C 94 28.804 75.196 10 52 10C 28.804 10 10 28.804 10 52C 10 75.196 28.804 94 52 94ZM 52 78.25C 66.4975 78.25 78.25 66.4975 78.25 52C 78.25 37.5025 66.4975 25.75 52 25.75C 37.5025 25.75 25.75 37.5025 25.75 52C 25.75 66.4975 37.5025 78.25 52 78.25Z"></path></g></g></g><g id="g-root-sy_5_Subtract_zk1mnaxx4e85-stroke" data-item-order="-585569" transform="translate(476, 638)"><g id="sy_5_Subtract_zk1mnaxx4e85-stroke" fill="none" stroke-linecap="round" stroke-linejoin="round" stroke-miterlimit="4" stroke="#e0cb15" stroke-width="2" stroke-opacity="1"><g><path d="M 49.375 10L 10 10"></path></g></g></g><g id="g-root-sy_5_Subtract-start_qoemeexx4f0u-stroke" data-item-order="-585567" transform="translate(515.375, 635.375)"><g id="sy_5_Subtract-start_qoemeexx4f0u-stroke" fill="none" stroke-linecap="round" stroke-linejoin="round" stroke-miterlimit="4" stroke="#484848" stroke-width="2" stroke-opacity="1"><g><path d="M 12.625 10C 14.0738 10 15.25 11.1762 15.25 12.625C 15.25 14.0738 14.0738 15.25 12.625 15.25C 11.1762 15.25 10 14.0738 10 12.625C 10 11.1762 11.1762 10 12.625 10Z"></path></g></g></g><g id="g-root-sy_5_Subtract_1_qoemeexx4f0v-stroke" data-item-order="-585563" transform="translate(353, 638)"><g id="sy_5_Subtract_1_qoemeexx4f0v-stroke" fill="none" stroke-linecap="round" stroke-linejoin="round" stroke-miterlimit="4" stroke="#e0cb15" stroke-width="2" stroke-opacity="1"><g><path d="M 10 10L 49 10"></path></g></g></g><g id="g-root-sy_5_Subtract-start_1_m8l49yxx4ft4-stroke" data-item-order="-585561" transform="translate(347, 635)"><g id="sy_5_Subtract-start_1_m8l49yxx4ft4-stroke" fill="none" stroke-linecap="round" stroke-linejoin="round" stroke-miterlimit="4" stroke="#484848" stroke-width="2" stroke-opacity="1"><g><path d="M 13 10C 11.3443 10 10 11.3443 10 13C 10 14.6557 11.3443 16 13 16C 14.6557 16 16 14.6557 16 13C 16 11.3443 14.6557 10 13 10Z"></path></g></g></g><g id="g-root-ic_1_hun1euxx7762-stroke" data-item-order="0" transform="translate(290, 247.99993896484375)"><g id="ic_1_hun1euxx7762-stroke" fill="none" stroke-linecap="round" stroke-linejoin="round" stroke-miterlimit="4" stroke="#484848" stroke-width="2" stroke-opacity="1"><g><path d="M 34 11C 22.710445 10.989351 13.082205 19.174097 11.274927 30.31806C 9.46765 41.462021 16.015713 52.270168 26.73 55.827999C 27.878 56.028 28.242001 55.354 28.242001 54.745998C 28.242001 54.195999 28.254 52.672001 28.242001 50.745998C 21.841999 52.133999 20.52 47.716 20.52 47.716C 20.098045 46.326046 19.192863 45.132847 17.967999 44.351997C 15.88 42.924 18.124001 42.952 18.124001 42.952C 19.601326 43.154766 20.902054 44.028809 21.647999 45.32C 22.276947 46.466057 23.33811 47.312988 24.595106 47.672131C 25.852102 48.031269 27.200523 47.872795 28.34 47.231998C 28.44611 46.069351 28.963858 44.982792 29.800001 44.168003C 24.694 43.584 19.324001 41.612 19.324001 32.795998C 19.29158 30.510563 20.140278 28.300371 21.694 26.624001C 20.989958 24.640976 21.070087 22.463902 21.917999 20.538C 21.917999 20.538 23.852001 19.92 28.242001 22.897999C 32.01231 21.863369 35.991692 21.863369 39.762001 22.898001C 44.161999 19.922001 46.080002 20.538 46.080002 20.538C 46.928215 22.463619 47.009762 24.640316 46.307999 26.624001C 47.862122 28.301443 48.709572 30.513554 48.674 32.799999C 48.674 41.639999 43.296001 43.582001 38.172001 44.147999C 39.285561 45.266937 39.859676 46.813477 39.746002 48.388L 39.746002 54.756001C 39.746002 55.369999 40.118 56.049999 41.285999 55.827999C 52.003197 52.269238 58.551495 41.45649 56.739853 30.310144C 54.928211 19.163797 45.292599 10.981462 34 11Z"></path></g></g></g><g id="g-root-tx_1_1q7l4h2xx77yn-stroke" data-item-order="0" transform="translate(423.56768798828125, 139.99993896484375)"></g><g id="g-root-tx_gitgithu_1hcklbaxx76dc-stroke" data-item-order="0" transform="translate(165.19793701171875, 247.99993896484375)"></g><g id="g-root-tx_vercel_zjf5k6xxa0hz-stroke" data-item-order="0" transform="translate(590, 404)"></g><g id="g-root-tx_obsidian_qqa1nqxx4e18-stroke" data-item-order="0" transform="translate(590, 163.99993896484375)"></g><g id="g-root-tx_verceled_v8lg4mxxbe2q-stroke" data-item-order="0" transform="translate(86.75, 488)"></g><g id="g-root-ic_netw_91hxiexxbggc-stroke" data-item-order="0" transform="translate(290, 488)"><g id="ic_netw_91hxiexxbggc-stroke" fill="none" stroke-linecap="round" stroke-linejoin="round" stroke-miterlimit="4" stroke="#484848" stroke-width="2" stroke-opacity="1"><g><path d="M 11.072001 33.996002C 11.072001 46.698551 21.369452 56.996002 34.071999 56.996002C 46.774551 56.996002 57.071999 46.698551 57.071999 33.996002C 57.071999 21.293451 46.774551 10.996 34.071999 10.996C 21.369452 10.996 11.072001 21.293451 11.072001 33.996002ZM 23.071999 25.496C 23.072001 27.981281 25.08672 29.996 27.572001 29.996C 30.057281 29.996 32.071999 27.981281 32.071999 25.496C 32.071999 23.010719 30.057281 20.996 27.572001 20.996C 25.08672 20.996 23.072001 23.010719 23.072001 25.496ZM 36.071999 45.495998C 36.071999 46.876713 37.191288 47.996002 38.571999 47.996002C 39.952713 47.996002 41.071999 46.876713 41.071999 45.496002C 41.071999 44.115288 39.952713 42.996002 38.571999 42.996002C 37.191288 42.996002 36.071999 44.115288 36.071999 45.496002ZM 44.071999 30.496C 44.072002 32.428997 45.639004 33.996002 47.572002 33.996002C 49.504997 33.996002 51.072002 32.428997 51.072002 30.496C 51.072002 28.563004 49.504997 26.996 47.572002 26.996C 45.639004 26.996 44.072002 28.563004 44.072002 30.496ZM 32.071999 25C 36.542919 25.170311 40.80291 26.945305 44.071999 30M 48.27 33.928001L 49.07 34.996002C 49.07 34.996002 52.07 38.996002 52.07 47.995998M 43.717999 13.11L 44.071999 14C 45.519688 18.288517 46.1968 22.799444 46.071999 27.323999M 45.071999 33C 44.821491 37.13044 43.332851 41.089699 40.799999 44.362M 37.375999 47.692001L 37.071999 48C 37.071999 48 32.071999 53 21.071999 53M 34.071999 11C 31.335846 13.926501 29.135672 17.311386 27.571999 21M 25.236 29.344L 25.071999 30C 23.982292 35.408966 24.684383 41.0257 27.072001 46C 30.472 52.812 39.071999 56 39.071999 56L 39.818001 56.278M 23.071999 25.496C 23.071999 25.496 15.4 26.046 11.522 29.441999M 11.632 39.063999L 12.072001 38.996002C 12.072001 38.996002 25.834 36.879997 37.02 43.535999"></path></g></g></g><g id="g-root-tx__1q87lk6xx4d8i-stroke" data-item-order="0" transform="translate(274, 145.99993896484375)"></g><g id="g-root-tx_2_4pf9wmxx8npg-stroke" data-item-order="0" transform="translate(423.56768798828125, 259.99993896484375)"></g><g id="g-root-tx_4_4jt04mxxe8zy-stroke" data-item-order="0" transform="translate(423.56768798828125, 500)"></g><g id="g-root-tx__1ha2oyuxxa1al-stroke" data-item-order="0" transform="translate(274, 386)"></g><g id="g-root-tx_vercelbu_13z8nomxx9zpq-stroke" data-item-order="0" transform="translate(590, 368)"></g><g id="g-root-tx__hv9ihyxxe7f1-stroke" data-item-order="0" transform="translate(530, 506)"></g><g id="g-root-tx_htmlcdn_hx4xraxxbfnn-stroke" data-item-order="0" transform="translate(41.91668701171875, 524)"></g><g id="g-root-ic_chec_m7yn6uxxa22w-stroke" data-item-order="0" transform="translate(530, 368)"><g id="ic_chec_m7yn6uxxa22w-stroke" fill="none" stroke-linecap="round" stroke-linejoin="round" stroke-miterlimit="4" stroke="#484848" stroke-width="2" stroke-opacity="1"><g><path d="M 45.900002 24.400139L 21.900021 24.400139L 21.900021 56.4002L 45.900002 56.4002L 45.900002 24.400139ZM 49.900002 35.5998L 56.299999 35.5998M 49.900002 43.5998L 56.299999 43.5998M 49.900002 51.5998L 54.299999 51.5998C 55.5 51.5998 56.299999 50.799801 56.299999 49.5998L 56.299999 29.599859C 56.299999 28.39986 55.5 27.599859 54.299999 27.599859L 49.900002 27.599859M 22.900021 34.999802L 45.900002 34.999802M 22.900021 45.999802L 45.900002 45.999802M 17.899981 35.5998L 11.5 35.5998M 17.899981 43.5998L 11.5 43.5998M 17.9 51.5998L 13.5 51.5998C 12.3 51.5998 11.5 50.799801 11.5 49.5998L 11.5 29.599859C 11.5 28.39986 12.3 27.599859 13.5 27.599859L 17.9 27.599859M 10 10M 30.9 13.59986L 33.900002 16.399839L 38.900002 11.599854"></path></g></g></g><g id="g-root-tx_vercel_v7yz1ixxe809-stroke" data-item-order="0" transform="translate(590, 644)"></g><g id="g-root-ic_2_qs5gx2xxe8si-stroke" data-item-order="0" transform="translate(530, 608)"><g id="ic_2_qs5gx2xxe8si-stroke" fill="none" stroke-linecap="round" stroke-linejoin="round" stroke-miterlimit="4" stroke="#484848" stroke-width="2" stroke-opacity="1"><g><path d="M 10 10M 37 31L 44 43L 57 21L 55 14L 48 14L 37 31ZM 33 25L 40 14L 15 14C 15 14.082 11 20 11 20L 14 25ZM 31 32L 17 32L 30 54L 38 54L 41 49L 31 32Z"></path></g></g></g><g id="g-root-tx_dnsdomai_18it0bqxxe9l4-stroke" data-item-order="0" transform="translate(590, 608)"></g><g id="g-root-tx__1qa30tixxe77z-stroke" data-item-order="0" transform="translate(259, 626)"></g><g id="g-root-tx_quartzve_hte38mxx4dfl-stroke" data-item-order="0" transform="translate(254.40625, 37.99993896484375)"></g><g id="g-root-tx_gitgithu_14142xyxx77y9-stroke" data-item-order="0" transform="translate(82.78125, 283.99993896484375)"></g><g id="g-root-tx_5_4g25lyxxh2iz-stroke" data-item-order="0" transform="translate(423.56768798828125, 620)"></g><g id="g-root-tx__i0vs9yxx8m4j-stroke" data-item-order="0" transform="translate(530, 265.99993896484375)"></g><g id="g-root-ic_empl_8zmi92xx4d8l-stroke" data-item-order="0" transform="translate(530, 127.99993896484375)"><g id="ic_empl_8zmi92xx4d8l-stroke" fill="none" stroke-linecap="round" stroke-linejoin="round" stroke-miterlimit="4" stroke="#484848" stroke-width="2" stroke-opacity="1"><g><path d="M 47 56L 21 56L 17.619999 42.48C 17.473774 41.878754 17.61408 41.243683 18 40.760002C 18.377295 40.282524 18.951456 40.002808 19.560001 40L 48.439999 40C 49.055561 39.996685 49.638355 40.277016 50.02 40.760002C 50.398937 41.247086 50.531792 41.881828 50.380001 42.48ZM 12 56L 56 56M 34 34L 34 37M 28 15.46C 30.186512 17.71983 33.195534 18.997042 36.34 19C 37.924873 18.978458 39.489223 18.638382 40.940002 18M 27 19C 27.000002 22.865993 30.134008 26 34 26C 37.865993 26 41 22.865993 41 19C 41 15.134007 37.865993 12 34 12C 30.134008 12 27.000002 15.134007 27.000002 19M 31.5 47.5C 31.5 48.880711 32.619289 50 34 50C 35.380714 50 36.5 48.880711 36.5 47.5C 36.5 46.119289 35.380714 45 34 45C 32.619289 45 31.5 46.119289 31.5 47.5M 43.5 36C 42.151165 31.896255 38.319733 29.122499 34 29.122499C 29.680267 29.122499 25.848835 31.896255 24.5 36"></path></g></g></g><g id="g-root-tx_obsidian_1cwr36uxx4etf-stroke" data-item-order="0" transform="translate(590, 127.99993896484375)"></g><g id="g-root-tx_3_18jfheuxxbfnl-stroke" data-item-order="0" transform="translate(423.56768798828125, 380)"></g></g></g><path id="w145i0omvzlc04" d="M65.283 12.757a.35.35 0 0 0 .584.157l5.203-5.141-6.183 3.523.396 1.461zm-2.216-11.7a.35.35 0 0 0-.522.305v3.111l3.276-1.868-2.754-1.548zm3.728 2.105l-4.25 2.421v2.445l6.391-3.644-2.141-1.222zm4.708 3.303a.35.35 0 0 0 0-.609l-1.592-.9-7.365 4.199v1.782a.35.35 0 0 0 .523.305l8.435-4.777z M44.542 2.513c0-.433.355-.783.792-.783s.792.35.792.783-.355.783-.792.783-.792-.35-.792-.783zm59.171 0c0-.433.355-.783.792-.783s.792.35.792.783-.355.783-.792.783-.792-.35-.792-.783zm-85.951 7.636h-1.27v-.487c-.276.201-.864.609-1.881.609-1.202 0-2.274-.794-2.137-2.078.118-1.106 1.153-1.584 1.848-1.727l2.17-.345c0-.539-.29-.956-1.064-1.006s-1.21.305-1.571 1.017l-1.124-.605c1.218-2.631 5.029-1.764 5.029.414v4.207zm-1.27-2.86c.006.396-.062 1.112-.819 1.59-.587.37-1.841.299-1.903-.395-.049-.555.461-.791.906-.898l1.816-.297zm72.662 2.86h-1.27v-.487c-.276.201-.864.609-1.881.609-1.202 0-2.274-.794-2.137-2.078.118-1.106 1.153-1.584 1.848-1.727l2.17-.345c0-.539-.29-.956-1.064-1.006s-1.21.305-1.571 1.017l-1.124-.605c1.218-2.631 5.029-1.764 5.029.414v4.207zm-1.27-2.86c.006.396-.062 1.112-.82 1.59-.587.37-1.841.299-1.903-.395-.049-.555.461-.791.906-.898l1.816-.297zM99.096 10.149H97.85v-8.45h1.246v4.895l2.68-2.559h1.738l-2.633 2.535 2.715 3.578h-1.556l-2.077-2.707-.867.844v1.863zm6.053-6.114h-1.255v6.113h1.255V4.035zm-59.2 0h-1.255v6.113h1.255V4.035zm5.584 6.113V1.697h1.255v2.695c.361-.346 1-.485 1.47-.485 1.452 0 2.477 1.082 2.457 2.448v3.792h-1.27v-3.68c0-.408-.214-1.339-1.315-1.339-.968 0-1.342.756-1.342 1.339v3.681h-1.255zm-4.76-4.894V4.039h.621a.45.45 0 0 0 .45-.45v-.855h1.251v1.305h1.309v1.215h-1.309v3.109c0 .293.105.664.648.664.365 0 .531-.035.736-.07v1.137s-.361.113-.857.113c-1.398 0-1.777-1.051-1.777-1.788V5.254h-1.071zM36.528 4.039h-1.394l2.191 6.106h1.125l1.234-3.918 1.238 3.918h1.129l2.188-6.106h-1.383l-1.359 3.93-1.256-3.93h-1.124l-1.242 3.957-1.348-3.957zM26.212 7.141c-.02 1.566 1.187 3.129 3.223 3.129 1.566 0 2.383-.918 2.734-1.719L31.172 8c-.315.399-.801 1.094-1.738 1.094-1.145 0-1.825-.781-1.891-1.52h4.625c.074-.284.148-.995-.03-1.559-.336-1.064-1.221-2.102-2.839-2.102s-3.088 1.152-3.088 3.227zm1.363-.75h3.348c-.055-.43-.566-1.301-1.623-1.301a1.79 1.79 0 0 0-1.725 1.301zm-8.758.75c.038 1.758 1.277 3.133 3.145 3.133 1.074 0 1.723-.477 1.961-.672v.547h1.242V1.703h-1.258v2.888c-.414-.36-1.062-.68-1.93-.68-1.91 0-3.198 1.473-3.16 3.23zm1.309-.08c0 1.119.723 1.978 1.836 1.978a1.88 1.88 0 0 0 1.94-1.904c0-1.371-1.011-1.99-1.972-1.99s-1.805.798-1.805 1.916zm76.683-.028C96.771 5.275 95.532 3.9 93.664 3.9c-1.074 0-1.723.477-1.961.672v-.547h-1.242v8.22h1.258V9.583c.414.36 1.063.68 1.93.68 1.91 0 3.198-1.473 3.16-3.23zm-1.309.08c0-1.119-.723-1.978-1.836-1.978a1.88 1.88 0 0 0-1.94 1.904c0 1.371 1.011 1.99 1.972 1.99S95.5 8.231 95.5 7.113zM106.441 10.173V4.036h1.254v.382c.361-.346 1-.485 1.47-.485 1.452 0 2.477 1.082 2.457 2.448v3.792h-1.27V6.492c0-.408-.214-1.339-1.315-1.339-.969 0-1.342.756-1.342 1.339v3.681h-1.254zm-30.383-.021V1.824h1.084l4.215 5.777V1.824h1.32v8.328h-1.094l-4.207-5.796v5.796h-1.319zM5.24 10.149H4V2.377h1.014l2.664 3.597 2.654-3.592h1.03v7.766h-1.256V4.762L7.678 8.068 5.24 4.742v5.407z" transform="translate(776, 740)" fill="#80808088" stroke="none"></path></svg>